<svg width="48" height="48" viewBox="0 0 48 48" fill="none" xmlns="http://www.w3.org/2000/svg">
<path d="M17.3574 20.0039H12.4727V36.0001H17.3574V20.0039Z" fill="white"/>
<path d="M14.8903 17.9117C15.468 17.9168 16.0342 17.7478 16.517 17.4261C16.9998 17.1044 17.3774 16.6446 17.602 16.1049C17.8266 15.5653 17.8879 14.9701 17.7783 14.3951C17.6687 13.82 17.393 13.2909 16.9863 12.8749C16.5796 12.4589 16.0601 12.1749 15.4939 12.0587C14.9276 11.9426 14.3401 11.9996 13.8058 12.2225C13.2716 12.4455 12.8147 12.8243 12.4932 13.3109C12.1717 13.7976 12.0001 14.3701 12 14.9558C11.9978 15.3425 12.0709 15.7257 12.215 16.0837C12.3592 16.4417 12.5716 16.7673 12.8401 17.0419C13.1086 17.3165 13.4279 17.5347 13.7797 17.6839C14.1315 17.8332 14.5089 17.9106 14.8903 17.9117Z" fill="white"/>
<path d="M25.4953 27.6032C25.4953 25.3584 26.5179 24.0133 28.4701 24.0133C30.2617 24.0133 31.1322 25.2984 31.1322 27.6032V35.9997H36V25.8725C36 21.5885 33.5999 19.5151 30.2617 19.5151C29.3107 19.5026 28.3727 19.7398 27.5389 20.2038C26.7052 20.6677 26.004 21.3425 25.5038 22.1626V20.0035H20.7881V35.9997H25.47L25.4953 27.6032Z" fill="white"/>
</svg>
