<svg width="25" height="25" viewBox="0 0 25 25" fill="none" xmlns="http://www.w3.org/2000/svg">
<path d="M12.5 2.34375C8.61816 2.34375 5.46875 5.34131 5.46875 9.0332C5.46875 13.2812 10.1562 20.0132 11.8774 22.3384C11.9489 22.4365 12.0425 22.5164 12.1507 22.5715C12.2589 22.6265 12.3786 22.6552 12.5 22.6552C12.6214 22.6552 12.7411 22.6265 12.8493 22.5715C12.9575 22.5164 13.0511 22.4365 13.1226 22.3384C14.8438 20.0142 19.5312 13.2847 19.5312 9.0332C19.5312 5.34131 16.3818 2.34375 12.5 2.34375Z" stroke="white" stroke-width="2" stroke-linecap="round" stroke-linejoin="round"/>
<path d="M12.5 11.7188C13.7944 11.7188 14.8438 10.6694 14.8438 9.375C14.8438 8.08058 13.7944 7.03125 12.5 7.03125C11.2056 7.03125 10.1562 8.08058 10.1562 9.375C10.1562 10.6694 11.2056 11.7188 12.5 11.7188Z" stroke="white" stroke-width="2" stroke-linecap="round" stroke-linejoin="round"/>
</svg>
