<svg width="25" height="25" viewBox="0 0 25 25" fill="none" xmlns="http://www.w3.org/2000/svg">
<path d="M22.0218 18.2621C21.2464 17.4809 19.3684 16.3407 18.4573 15.8813C17.2708 15.2836 17.1731 15.2348 16.2405 15.9277C15.6184 16.3901 15.2049 16.8031 14.4768 16.6479C13.7488 16.4926 12.1668 15.6171 10.7815 14.2362C9.39628 12.8554 8.47001 11.2275 8.31424 10.5019C8.15848 9.77628 8.5784 9.36759 9.03641 8.74406C9.68192 7.86515 9.63309 7.71867 9.08133 6.53214C8.65116 5.60929 7.47782 3.74894 6.69364 2.97746C5.85477 2.14884 5.85477 2.29533 5.31424 2.51994C4.87419 2.70509 4.45202 2.93015 4.05301 3.1923C3.27176 3.71134 2.83817 4.1425 2.53495 4.79044C2.23172 5.43839 2.09549 6.95744 3.66141 9.80216C5.22733 12.6469 6.32596 14.1015 8.59989 16.3691C10.8738 18.6366 12.6224 19.8559 15.1785 21.2895C18.3406 23.0605 19.5535 22.7152 20.2034 22.4125C20.8533 22.1098 21.2864 21.6801 21.8064 20.8988C22.0693 20.5005 22.2948 20.0788 22.4803 19.6391C22.7054 19.1005 22.8518 19.1005 22.0218 18.2621Z" stroke="white" stroke-width="2" stroke-miterlimit="10"/>
</svg>
