<svg width="48" height="48" viewBox="0 0 48 48" fill="none" xmlns="http://www.w3.org/2000/svg">
<path d="M35.4987 18.622C35.3624 18.1158 35.0949 17.6539 34.723 17.2823C34.3511 16.9107 33.8877 16.6423 33.379 16.504C31.5068 16 24 16 24 16C24 16 16.4932 16 14.621 16.504C14.1123 16.6423 13.6489 16.9107 13.277 17.2823C12.9051 17.6539 12.6376 18.1158 12.5013 18.622C12 20.494 12 24.4 12 24.4C12 24.4 12 28.306 12.5013 30.178C12.6376 30.6842 12.9051 31.1461 13.277 31.5177C13.6489 31.8893 14.1123 32.1576 14.621 32.296C16.4932 32.8 24 32.8 24 32.8C24 32.8 31.5068 32.8 33.379 32.296C33.8877 32.1576 34.3511 31.8893 34.723 31.5177C35.0949 31.1461 35.3624 30.6842 35.4987 30.178C36 28.306 36 24.4 36 24.4C36 24.4 36 20.494 35.4987 18.622ZM21.5481 27.946V20.854L27.8168 24.4L21.5481 27.946Z" fill="white"/>
</svg>
