<svg width="48" height="48" viewBox="0 0 48 48" fill="none" xmlns="http://www.w3.org/2000/svg">
<path d="M23.9999 19.9971C21.7885 19.9971 19.9971 21.7885 19.9971 23.9999C19.9971 26.2114 21.7885 28.0028 23.9999 28.0028C26.2114 28.0028 28.0028 26.2114 28.0028 23.9999C28.0028 21.7885 26.2114 19.9971 23.9999 19.9971Z" fill="white"/>
<path d="M35.9314 19.0543C35.8714 17.7771 35.6743 16.9029 35.3743 16.14C35.0657 15.3514 34.6543 14.6829 33.9943 14.0143C33.3257 13.3457 32.6571 12.9343 31.8686 12.6343C31.1057 12.3343 30.2314 12.1371 28.9543 12.0771C27.6686 12.0171 27.2571 12 24 12C20.7429 12 20.3314 12.0171 19.0543 12.0686C17.7771 12.1286 16.9029 12.3257 16.14 12.6257C15.3514 12.9343 14.6829 13.3457 14.0143 14.0057C13.3457 14.6829 12.9343 15.3514 12.6343 16.14C12.3343 16.9029 12.1371 17.7771 12.0771 19.0543C12.0171 20.3314 12 20.7429 12 24C12 27.2571 12.0171 27.6686 12.0686 28.9457C12.1286 30.2229 12.3257 31.0971 12.6257 31.86C12.9343 32.6486 13.3457 33.3171 14.0057 33.9857C14.6743 34.6543 15.3429 35.0657 16.1314 35.3657C16.8943 35.6657 17.7686 35.8629 19.0457 35.9229C20.3314 35.9829 20.7429 36 24 36C27.2571 36 27.6686 35.9829 28.9457 35.9314C30.2229 35.8714 31.0971 35.6743 31.86 35.3743C32.6486 35.0657 33.3171 34.6543 33.9857 33.9943C34.6543 33.3257 35.0657 32.6571 35.3657 31.8686C35.6657 31.1057 35.8629 30.2314 35.9229 28.9543C35.9829 27.6686 36 27.2571 36 24C36 20.7429 35.9829 20.3314 35.9314 19.0543ZM24 30.1629C20.5971 30.1629 17.8371 27.4029 17.8371 24C17.8371 20.5971 20.5971 17.8371 24 17.8371C27.4029 17.8371 30.1629 20.5971 30.1629 24C30.1629 27.4029 27.4029 30.1629 24 30.1629ZM30.4029 19.0371C29.6057 19.0371 28.9629 18.3943 28.9629 17.5971C28.9629 16.8 29.6057 16.1571 30.4029 16.1571C31.2 16.1571 31.8429 16.8 31.8429 17.5971C31.8429 18.3943 31.2 19.0371 30.4029 19.0371Z" fill="white"/>
</svg>
