<svg width="198" height="39" viewBox="0 0 198 39" fill="none" xmlns="http://www.w3.org/2000/svg">
<path d="M31.3477 0.0236486C27.3705 0.0280478 24.1494 3.19545 24.1449 7.10631V13.7534L12.276 2.07806C9.46649 -0.689016 4.90772 -0.693416 2.0982 2.06926C1.10055 3.04588 0.420534 4.28644 0.134213 5.63699C0.134213 5.63699 0.134213 5.63698 0.134213 5.66338C0.0939491 5.86134 0.0671065 6.05931 0.0402639 6.25727V6.37165C0.0134213 6.6092 0 6.85116 0 7.08871V30.9058C0 34.8167 3.22559 37.9885 7.20277 37.9885C11.1799 37.9885 14.4055 34.8167 14.4055 30.9058V24.1839L25.7644 35.3754C28.2653 38.4152 32.7972 38.8859 35.8886 36.4268C37.5841 35.0806 38.5639 33.0482 38.5594 30.9058V7.08871C38.546 3.18225 35.3204 0.0236486 31.3477 0.0236486ZM25.0844 9.64463C26.5652 13.054 30.5782 14.6333 34.0454 13.1772C35.6604 12.4997 36.9444 11.2327 37.6378 9.64463V27.4613C37.2933 26.8234 36.846 26.2427 36.3225 25.7368L25.071 14.6597L25.0844 9.64463ZM25.0844 30.9234V15.9662L35.6917 26.4011C38.1433 28.8118 38.1433 32.7183 35.6917 35.129C33.2401 37.5397 29.2674 37.5397 26.8158 35.129L26.4802 34.7771C25.5721 33.6817 25.0755 32.3179 25.071 30.9058L25.0844 30.9234ZM13.4526 22.0063L2.71558 11.4483C1.5345 10.2957 0.872385 8.7208 0.876858 7.08431C0.876858 6.87315 0.876858 6.64439 0.908175 6.45963C0.908175 6.42444 0.908175 6.39364 0.908175 6.36285C0.92607 6.18688 0.952913 6.01531 0.988703 5.84375C0.988703 5.84375 0.988703 5.84375 0.988703 5.81735C1.6195 2.47398 4.88983 0.265603 8.29437 0.890284C11.3142 1.44458 13.4795 4.06648 13.4079 7.08431L13.4526 22.0063ZM13.4526 30.9234C13.4526 34.3327 10.6431 37.0954 7.17592 37.0954C3.70875 37.0954 0.899227 34.3327 0.899227 30.9234V29.3441C1.7224 25.9347 5.19852 23.8275 8.66569 24.637C11.0368 25.1913 12.8889 27.0125 13.4526 29.3441V30.9234ZM13.4526 27.4041C11.5244 23.9947 7.15355 22.7673 3.69086 24.659C2.51873 25.3013 1.5524 26.2515 0.899227 27.4041V10.5553C1.22581 11.1183 1.62398 11.633 2.08478 12.095L13.4571 23.2732L13.4526 27.4041ZM14.4011 22.8993V7.08871C14.4011 6.44203 14.3071 5.79536 14.1282 5.17067L24.1449 15.038V30.9058C24.1449 31.5261 24.2344 32.1464 24.3999 32.7446L14.4011 22.8993Z" fill="white"/>
<path d="M60.3776 29.058V18.632C60.3776 16.0936 59.4829 14.9059 57.3802 14.9059C55.0718 14.9059 54.1054 16.1596 54.1054 18.7023V29.058H48.4014V10.2647H53.7251V12.262H53.7967C55.0002 10.3307 56.6913 9.62247 58.9997 9.62247C62.4445 9.62247 66.0996 11.5185 66.0996 17.0747V29.058H60.3776Z" fill="white"/>
<path d="M77.8483 29.6475C72.0324 29.6475 67.5586 25.4111 67.5586 19.6526C67.5586 13.8237 72.1397 9.65326 77.8483 9.65326C83.5568 9.65326 88.1379 13.8897 88.1379 19.5822C88.1514 25.4771 83.6015 29.6475 77.8483 29.6475ZM82.4294 19.6526C82.4965 17.0966 80.443 14.9719 77.8483 14.9059C77.8348 14.9059 77.8259 14.9059 77.8125 14.9059C75.2982 14.9059 73.2626 17.0747 73.2626 19.6526C73.1955 22.2041 75.2445 24.3289 77.8393 24.3949C77.8438 24.3949 77.8438 24.3949 77.8483 24.3949C80.537 24.3949 82.4294 22.1557 82.4294 19.6526Z" fill="white"/>
<path d="M94.3514 29.058L87.4932 10.2648H93.4209L97.076 21.9885H97.1654L100.816 10.2648H106.744L99.8497 29.058H94.3514Z" fill="white"/>
<path d="M121.324 29.058V27.0388H121.257C120.429 28.6973 118.152 29.7135 115.638 29.7135C109.988 29.7135 106.06 25.3451 106.06 19.6526C106.06 14.092 110.158 9.62247 115.638 9.62247C117.982 9.62247 120.152 10.5375 121.257 12.262H121.324V10.2647H127.046V29.058H121.324ZM121.324 19.6394C121.329 17.0043 119.159 14.8619 116.479 14.8575C116.474 14.8575 116.47 14.8575 116.466 14.8575C113.844 14.8575 111.777 16.9955 111.777 19.6966C111.79 22.2877 113.938 24.3817 116.573 24.3685C119.208 24.3553 121.337 22.2437 121.324 19.6526V19.6394Z" fill="white"/>
<path d="M130.809 29.058V14.5407H127.981V10.2735H130.809V3.98273H136.535V10.2647H139.296V14.5407H136.535V29.058H130.809Z" fill="white"/>
<path d="M144.14 21.377C144.453 23.515 146.278 24.936 148.614 24.936C150.005 24.98 151.32 24.3157 152.094 23.1763H157.95C156.134 27.2983 152.64 29.6827 148.614 29.6827C143.021 29.6871 138.485 25.2263 138.48 19.7274C138.48 19.723 138.48 19.723 138.48 19.7186C138.48 14.2944 142.892 9.62247 148.511 9.62247C154.228 9.62247 158.603 14.0612 158.603 19.8857C158.612 20.3872 158.568 20.8843 158.469 21.377H144.14ZM152.895 17.585C152.448 15.6537 150.725 14.3648 148.52 14.3648C146.448 14.3648 144.659 15.5833 144.211 17.585H152.895Z" fill="white"/>
<path d="M173.569 17.5146C172.848 15.8429 171.144 14.7871 169.296 14.8751C166.679 14.8751 164.885 17.0131 164.885 19.657C164.885 22.3977 166.782 24.4345 169.435 24.4345C171.202 24.4961 172.835 23.5063 173.569 21.927H179.384C178.248 26.6341 174.146 29.6871 169.251 29.6871C163.646 29.6783 159.114 25.2043 159.123 19.6922C159.123 19.6702 159.123 19.6438 159.123 19.6218C159.056 14.1668 163.498 9.69288 169.046 9.62689C169.081 9.62689 169.113 9.62689 169.149 9.62689C174.181 9.62689 178.279 12.7415 179.349 17.519L173.569 17.5146Z" fill="white"/>
<path d="M192.278 29.058V18.7375C192.278 16.296 191.316 14.9059 189.213 14.9059C187.039 14.9059 186.006 16.1596 186.006 18.5V29.058H180.288V3.98273H186.006V12.0596C186.833 10.5375 188.69 9.62246 190.967 9.62246C195.347 9.62246 198 12.3323 198 17.2462V29.058H192.278Z" fill="white"/>
</svg>
