<svg width="249" height="60" viewBox="0 0 249 60" fill="none" xmlns="http://www.w3.org/2000/svg">
<path d="M57.3477 11.0236C53.3705 11.028 50.1494 14.1954 50.1449 18.1063V24.7534L38.276 13.0781C35.4665 10.311 30.9077 10.3066 28.0982 13.0693C27.1005 14.0459 26.4205 15.2864 26.1342 16.637C26.1342 16.637 26.1342 16.637 26.1342 16.6634C26.0939 16.8613 26.0671 17.0593 26.0403 17.2573V17.3716C26.0134 17.6092 26 17.8512 26 18.0887V41.9058C26 45.8167 29.2256 48.9885 33.2028 48.9885C37.1799 48.9885 40.4055 45.8167 40.4055 41.9058V35.1839L51.7644 46.3754C54.2653 49.4152 58.7972 49.8859 61.8886 47.4268C63.5841 46.0806 64.5639 44.0482 64.5594 41.9058V18.0887C64.546 14.1823 61.3204 11.0236 57.3477 11.0236ZM51.0844 20.6446C52.5652 24.054 56.5782 25.6333 60.0454 24.1772C61.6604 23.4997 62.9444 22.2327 63.6378 20.6446V38.4613C63.2933 37.8234 62.846 37.2427 62.3225 36.7368L51.071 25.6597L51.0844 20.6446ZM51.0844 41.9234V26.9662L61.6917 37.4011C64.1433 39.8118 64.1433 43.7183 61.6917 46.129C59.2401 48.5397 55.2674 48.5397 52.8158 46.129L52.4802 45.7771C51.5721 44.6817 51.0755 43.3179 51.071 41.9058L51.0844 41.9234ZM39.4526 33.0063L28.7156 22.4483C27.5345 21.2957 26.8724 19.7208 26.8769 18.0843C26.8769 17.8732 26.8769 17.6444 26.9082 17.4596C26.9082 17.4244 26.9082 17.3936 26.9082 17.3628C26.9261 17.1869 26.9529 17.0153 26.9887 16.8437C26.9887 16.8437 26.9887 16.8437 26.9887 16.8174C27.6195 13.474 30.8898 11.2656 34.2944 11.8903C37.3142 12.4446 39.4795 15.0665 39.4079 18.0843L39.4526 33.0063ZM39.4526 41.9234C39.4526 45.3327 36.6431 48.0954 33.1759 48.0954C29.7088 48.0954 26.8992 45.3327 26.8992 41.9234V40.3441C27.7224 36.9347 31.1985 34.8275 34.6657 35.637C37.0368 36.1913 38.8889 38.0125 39.4526 40.3441V41.9234ZM39.4526 38.4041C37.5244 34.9947 33.1536 33.7673 29.6909 35.659C28.5187 36.3013 27.5524 37.2515 26.8992 38.4041V21.5553C27.2258 22.1183 27.624 22.633 28.0848 23.095L39.4571 34.2732L39.4526 38.4041ZM40.4011 33.8993V18.0887C40.4011 17.442 40.3071 16.7954 40.1282 16.1707L50.1449 26.038V41.9058C50.1449 42.5261 50.2344 43.1464 50.3999 43.7446L40.4011 33.8993Z" fill="#FF4C41"/>
<path d="M86.3776 40.0581V29.632C86.3776 27.0937 85.4829 25.906 83.3802 25.906C81.0718 25.906 80.1054 27.1597 80.1054 29.7024V40.0581H74.4014V21.2648H79.7251V23.2621H79.7967C81.0002 21.3308 82.6913 20.6226 84.9997 20.6226C88.4445 20.6226 92.0996 22.5186 92.0996 28.0747V40.0581H86.3776Z" fill="#FF4C41"/>
<path d="M103.848 40.6475C98.0324 40.6475 93.5586 36.4111 93.5586 30.6526C93.5586 24.8237 98.1397 20.6533 103.848 20.6533C109.557 20.6533 114.138 24.8897 114.138 30.5822C114.151 36.4771 109.602 40.6475 103.848 40.6475ZM108.429 30.6526C108.497 28.0967 106.443 25.9719 103.848 25.9059C103.835 25.9059 103.826 25.9059 103.812 25.9059C101.298 25.9059 99.2626 28.0747 99.2626 30.6526C99.1955 33.2041 101.245 35.3289 103.839 35.3949C103.844 35.3949 103.844 35.3949 103.848 35.3949C106.537 35.3949 108.429 33.1557 108.429 30.6526Z" fill="#FF4C41"/>
<path d="M120.351 40.0579L113.493 21.2646H119.421L123.076 32.9884H123.165L126.816 21.2646H132.744L125.85 40.0579H120.351Z" fill="#FF4C41"/>
<path d="M147.324 40.0581V38.0389H147.257C146.429 39.6973 144.152 40.7136 141.638 40.7136C135.988 40.7136 132.06 36.3452 132.06 30.6527C132.06 25.0921 136.158 20.6226 141.638 20.6226C143.982 20.6226 146.152 21.5376 147.257 23.2621H147.324V21.2648H153.046V40.0581H147.324ZM147.324 30.6395C147.329 28.0044 145.159 25.862 142.479 25.8576C142.474 25.8576 142.47 25.8576 142.466 25.8576C139.844 25.8576 137.777 27.9956 137.777 30.6966C137.79 33.2878 139.938 35.3818 142.573 35.3686C145.208 35.3554 147.337 33.2438 147.324 30.6527V30.6395Z" fill="#FF4C41"/>
<path d="M156.809 40.0582V25.5409H153.981V21.2737H156.809V14.9829H162.535V21.2649H165.296V25.5409H162.535V40.0582H156.809Z" fill="#FF4C41"/>
<path d="M170.14 32.3771C170.453 34.5151 172.278 35.9361 174.614 35.9361C176.005 35.98 177.32 35.3158 178.094 34.1764H183.95C182.134 38.2984 178.64 40.6828 174.614 40.6828C169.021 40.6872 164.485 36.2264 164.48 30.7274C164.48 30.723 164.48 30.723 164.48 30.7186C164.48 25.2945 168.892 20.6226 174.511 20.6226C180.228 20.6226 184.603 25.0613 184.603 30.8858C184.612 31.3873 184.568 31.8844 184.469 32.3771H170.14ZM178.895 28.5851C178.448 26.6538 176.725 25.3649 174.52 25.3649C172.448 25.3649 170.659 26.5834 170.211 28.5851H178.895Z" fill="#FF4C41"/>
<path d="M199.569 28.5147C198.848 26.843 197.144 25.7872 195.296 25.8752C192.679 25.8752 190.885 28.0132 190.885 30.6571C190.885 33.3977 192.782 35.4345 195.435 35.4345C197.202 35.4961 198.835 34.5063 199.569 32.927H205.384C204.248 37.6341 200.146 40.6872 195.251 40.6872C189.646 40.6784 185.114 36.2044 185.123 30.6922C185.123 30.6702 185.123 30.6439 185.123 30.6219C185.056 25.1669 189.498 20.6929 195.046 20.627C195.081 20.627 195.113 20.627 195.149 20.627C200.181 20.627 204.279 23.7416 205.349 28.5191L199.569 28.5147Z" fill="#FF4C41"/>
<path d="M218.278 40.0582V29.7377C218.278 27.2962 217.316 25.906 215.213 25.906C213.039 25.906 212.006 27.1598 212.006 29.5002V40.0582H206.288V14.9829H212.006V23.0598C212.833 21.5377 214.69 20.6226 216.967 20.6226C221.347 20.6226 224 23.3325 224 28.2464V40.0582H218.278Z" fill="#FF4C41"/>
</svg>
