<svg width="27" height="19" viewBox="0 0 27 19" fill="none" xmlns="http://www.w3.org/2000/svg">
<path d="M26.0084 8.57326C24.5991 6.39372 22.7706 4.54229 20.721 3.21869C18.4536 1.75289 15.9502 0.977905 13.482 0.977905C11.2172 0.977905 8.99028 1.62505 6.86294 2.90124C4.69352 4.20247 2.72811 6.10344 1.02102 8.55089C0.828301 8.82749 0.722166 9.15513 0.716096 9.49219C0.710026 9.82925 0.804297 10.1605 0.986928 10.4439C2.39361 12.6452 4.20403 14.4993 6.22165 15.8048C8.49333 17.2765 10.9381 18.0222 13.482 18.0222C15.9699 18.0222 18.4786 17.2536 20.7364 15.8C22.785 14.4807 24.6098 12.6223 26.0138 10.4247C26.1901 10.1479 26.2833 9.82637 26.2824 9.49819C26.2815 9.17002 26.1864 8.84901 26.0084 8.57326ZM13.5001 14.6133C12.4888 14.6133 11.5002 14.3134 10.6593 13.7516C9.81842 13.1897 9.16304 12.3911 8.77603 11.4568C8.38902 10.5225 8.28776 9.49437 8.48505 8.50249C8.68235 7.51061 9.16934 6.59951 9.88445 5.8844C10.5996 5.1693 11.5107 4.68231 12.5025 4.48501C13.4944 4.28771 14.5225 4.38897 15.4569 4.77599C16.3912 5.163 17.1898 5.81838 17.7516 6.65925C18.3135 7.50013 18.6134 8.48873 18.6134 9.50004C18.6118 10.8557 18.0726 12.1554 17.114 13.114C16.1554 14.0726 14.8557 14.6118 13.5001 14.6133Z" fill="#45E4DB"/>
</svg>
